<?xml version="1.0" standalone="no"?>
<!DOCTYPE svg PUBLIC "-//W3C//DTD SVG 20010904//EN"
 "http://www.w3.org/TR/2001/REC-SVG-20010904/DTD/svg10.dtd">
<svg version="1.0" xmlns="http://www.w3.org/2000/svg"
 width="128.000000pt" height="128.000000pt" viewBox="0 0 128.000000 128.000000"
 preserveAspectRatio="xMidYMid meet">
<metadata>
Created by potrace 1.16, written by Peter Selinger 2001-2019
</metadata>
<g transform="translate(0.000000,128.000000) scale(0.100000,-0.100000)"
fill="#000000" stroke="none">
<path d="M0 640 l0 -640 640 0 640 0 0 640 0 640 -640 0 -640 0 0 -640z m600
464 c0 -8 7 -14 15 -14 8 0 15 -4 15 -10 0 -5 -6 -10 -14 -10 -8 0 -16 -7 -20
-15 -12 -33 39 -4 58 33 l14 27 11 -27 c5 -15 23 -34 38 -42 26 -14 27 -15 8
-22 -25 -10 -39 -24 -49 -49 -8 -19 -8 -19 -19 3 -11 24 -43 30 -49 10 -3 -9
-9 -8 -22 5 -21 20 -33 22 -38 5 -3 -9 -9 -8 -22 5 -16 15 -16 18 -2 33 15 14
17 14 32 0 23 -24 35 -19 22 9 -6 14 -17 25 -25 25 -7 0 -13 5 -13 10 0 6 6
10 14 10 7 0 16 9 19 21 6 23 27 17 27 -7z m390 -18 c0 -8 10 -18 23 -22 l22
-7 -22 -10 c-13 -6 -23 -16 -23 -24 0 -7 -5 -13 -11 -13 -5 0 -7 -5 -4 -11 5
-7 14 -5 29 4 18 12 25 13 40 2 17 -13 16 -14 -4 -25 -16 -9 -25 -9 -33 -1 -8
8 -16 6 -29 -6 -14 -12 -21 -13 -32 -4 -16 14 -46 4 -46 -15 0 -8 -4 -14 -10
-14 -5 0 -10 6 -10 13 0 16 -36 47 -55 47 -8 0 -15 5 -15 10 0 6 8 10 17 10
20 0 53 28 53 47 0 7 5 13 10 13 6 0 10 -5 10 -12 0 -20 32 -48 54 -47 21 0
21 0 -2 16 l-22 16 22 22 c27 27 38 30 38 11z m-616 -31 c3 -8 12 -15 21 -15
8 0 15 -4 15 -10 0 -5 -6 -10 -13 -10 -17 0 -40 -47 -27 -55 5 -3 16 5 24 17
15 22 16 22 30 3 12 -16 11 -21 -2 -34 -11 -12 -16 -13 -20 -3 -5 16 -17 15
-36 -3 -13 -13 -19 -14 -36 -3 -18 11 -23 10 -38 -10 l-18 -23 -22 31 c-12 16
-29 30 -37 30 -8 0 -15 5 -15 10 0 6 7 10 16 10 18 0 37 18 48 45 6 18 9 17
32 -13 14 -18 32 -32 40 -32 22 0 17 20 -8 30 l-23 9 23 7 c12 3 22 13 22 20
0 19 16 18 24 -1z m235 -120 c35 -17 41 -32 41 -96 l0 -49 124 0 c118 0 126 1
140 22 21 29 20 16 0 -25 -17 -32 -16 -32 3 -14 28 24 34 21 29 -15 -4 -40
-30 -90 -40 -80 -5 4 -7 0 -6 -8 4 -26 1 -36 -20 -58 -25 -26 -76 -31 -66 -6
3 9 2 12 -4 9 -10 -6 27 61 65 119 9 14 14 30 10 36 -7 11 -143 14 -194 4 -28
-6 -45 -34 -20 -34 5 0 7 -5 4 -10 -3 -6 10 -40 29 -76 l35 -66 -37 6 c-20 3
-38 10 -40 16 -11 33 -86 130 -101 130 -29 0 -82 -53 -91 -90 -7 -31 -8 -32
-9 -8 -1 17 10 40 30 62 l31 36 -29 24 c-23 20 -28 32 -28 70 0 67 18 78 45
27 16 -32 26 -42 42 -39 35 5 46 34 26 69 -33 56 -21 72 31 44z m299 -12 c-10
-2 -26 -2 -35 0 -10 3 -2 5 17 5 19 0 27 -2 18 -5z m-688 -64 c7 -11 9 -23 7
-26 -3 -2 -8 5 -12 16 -3 12 -11 21 -16 21 -5 0 -2 -14 6 -30 9 -17 19 -29 24
-26 4 3 34 -49 66 -115 33 -65 64 -119 70 -119 6 0 23 -6 38 -12 21 -10 27
-20 27 -46 0 -25 12 -45 54 -91 30 -32 59 -69 65 -82 11 -23 11 -23 -6 1 -10
14 -42 51 -70 82 -39 43 -53 66 -53 88 0 19 -5 30 -14 30 -8 0 -16 6 -19 13
-3 9 -10 9 -31 -2 -15 -8 -24 -21 -22 -28 3 -7 1 -15 -4 -18 -5 -3 -7 8 -5 24
3 21 -17 72 -71 181 -41 83 -74 154 -74 156 0 13 31 1 40 -17z m-40 -31 c0 -5
-4 -8 -10 -8 -15 0 -12 -16 5 -33 13 -13 13 -16 0 -27 -17 -14 -3 -40 21 -40
8 0 14 -4 14 -10 0 -5 -8 -10 -17 -10 -20 0 -53 -28 -53 -47 0 -7 -4 -13 -10
-13 -5 0 -10 7 -10 16 0 20 -28 43 -52 44 -23 0 -24 20 -1 20 20 0 53 28 53
47 0 20 -21 15 -27 -7 -6 -22 -23 -27 -23 -7 0 8 -10 19 -22 25 l-23 11 23 7
c12 3 22 13 22 20 0 8 5 14 10 14 6 0 10 -6 10 -12 0 -12 50 -42 57 -34 8 8
-11 36 -25 36 -13 0 -12 3 4 18 15 15 23 16 37 8 9 -6 17 -14 17 -18z m899 -9
c34 -12 33 -11 25 -34 -6 -14 -8 -13 -21 5 -8 11 -21 20 -29 20 -8 0 -14 5
-14 10 0 12 0 12 39 -1z m-97 -36 c-8 -14 -2 -22 33 -44 23 -15 45 -35 49 -45
5 -12 -5 -7 -27 14 -19 18 -46 36 -61 40 -25 7 -26 8 -11 30 19 26 30 30 17 5z
m95 -150 c-3 -10 -5 -4 -5 12 0 17 2 24 5 18 2 -7 2 -21 0 -30z m-21 -58 c-9
-13 -38 -36 -65 -50 -27 -13 -52 -33 -54 -42 -4 -15 -5 -15 -6 2 -1 16 13 28
54 48 33 16 60 37 67 52 6 14 13 23 16 20 3 -2 -3 -16 -12 -30z m-478 -54 c18
-7 32 -16 32 -20 -1 -3 -7 -31 -15 -61 l-14 -55 6 61 c5 60 5 61 -25 73 -16 7
-43 27 -58 44 l-29 31 36 -30 c19 -16 49 -36 67 -43z m-192 -89 c12 -17 31
-66 42 -108 28 -103 45 -128 83 -120 24 5 29 2 29 -15 0 -28 23 -19 35 15 6
17 5 40 -1 66 -6 22 -8 56 -3 77 l7 38 -1 -40 c0 -22 3 -50 7 -63 9 -26 46
-50 46 -30 2 29 37 228 42 233 3 3 13 2 23 -1 16 -7 17 -18 11 -146 l-6 -138
37 -1 c26 -1 30 -3 14 -6 -37 -7 -86 5 -125 32 l-36 24 0 -25 c0 -68 -63 -89
-112 -36 -38 40 -75 111 -89 167 -14 59 -36 105 -58 124 -11 9 -9 9 9 -1 14
-8 35 -29 46 -46z m561 6 c-3 -8 -6 -5 -6 6 -1 11 2 17 5 13 3 -3 4 -12 1 -19z
m10 -50 c-3 -7 -5 -2 -5 12 0 14 2 19 5 13 2 -7 2 -19 0 -25z m13 -66 c0 -28
-8 -47 -31 -72 l-30 -35 25 36 c17 23 26 49 26 72 0 21 2 37 5 37 3 0 5 -17 5
-38z m-100 -122 c-8 -5 -24 -9 -35 -9 -16 1 -16 2 5 9 35 11 48 11 30 0z"/>
<path d="M575 920 c3 -5 15 -10 26 -10 11 0 17 5 14 10 -3 6 -15 10 -26 10
-11 0 -17 -4 -14 -10z"/>
<path d="M507 769 c7 -7 15 -10 18 -7 3 3 -2 9 -12 12 -14 6 -15 5 -6 -5z"/>
<path d="M550 760 c-8 -5 -10 -10 -5 -10 6 0 17 5 25 10 8 5 11 10 5 10 -5 0
-17 -5 -25 -10z"/>
<path d="M605 750 c-3 -6 1 -7 9 -4 18 7 21 14 7 14 -6 0 -13 -4 -16 -10z"/>
</g>
</svg>
